PathFileType	4	(x/y/z)	S04_PSF_T10.trc
DataRate	CameraRate	NumFrames	NumMarkers	Units	OrigDataRate	OrigDataStartFrame	OrigNumFrames
240	240	8	51	mm	240	213	425
Frame#	Time	Sternum			R.Acromium			L.Acromium			Top.Head			R.ASIS			L.ASIS			R.PSIS			L.PSIS			R.Great.Tro			L.Great.Tro			R.Iliac.Crest			L.Iliac.Crest			V.Sacral			R.Thigh.Upper.Post			R.Thigh.Lower.Ant			R.Thigh.Lower.Post			R.Thigh.Upper.Ant			R.Knee.Lat			R.Knee.Med			R.Shank.Upper.Post			R.Shank.Lower.Ant			R.Shank.Lower.Post			R.Shank.Upper.Ant			R.Ankle.Lat			R.Ankle.Med			R.Heel.Upper			R.Heel.Med			R.Heel.Lat			R.Toe.Lat			R.Toe.Med			R.Toe.Tip			L.Thigh.Upper.Post			L.Thigh.Lower.Ant			L.Thigh.Lower.Post			L.Thigh.Upper.Ant			L.Knee.Lat			L.Knee.Med			L.Shank.Upper.Post			L.Shank.Lower.Ant			L.Shank.Lower.Post			L.Shank.Upper.Ant			L.Ankle.Lat			L.Ankle.Med			L.Heel.Upper			L.Heel.Med			L.Heel.Lat			L.Toe.Lat			L.Toe.Med			L.Toe.Tip			Cervical.Spine			Back			
		X1	Y1	Z1	X2	Y2	Z2	X3	Y3	Z3	X4	Y4	Z4	X5	Y5	Z5	X6	Y6	Z6	X7	Y7	Z7	X8	Y8	Z8	X9	Y9	Z9	X10	Y10	Z10	X11	Y11	Z11	X12	Y12	Z12	X13	Y13	Z13	X14	Y14	Z14	X15	Y15	Z15	X16	Y16	Z16	X17	Y17	Z17	X18	Y18	Z18	X19	Y19	Z19	X20	Y20	Z20	X21	Y21	Z21	X22	Y22	Z22	X23	Y23	Z23	X24	Y24	Z24	X25	Y25	Z25	X26	Y26	Z26	X27	Y27	Z27	X28	Y28	Z28	X29	Y29	Z29	X30	Y30	Z30	X31	Y31	Z31	X32	Y32	Z32	X33	Y33	Z33	X34	Y34	Z34	X35	Y35	Z35	X36	Y36	Z36	X37	Y37	Z37	X38	Y38	Z38	X39	Y39	Z39	X40	Y40	Z40	X41	Y41	Z41	X42	Y42	Z42	X43	Y43	Z43	X44	Y44	Z44	X45	Y45	Z45	X46	Y46	Z46	X47	Y47	Z47	X48	Y48	Z48	X49	Y49	Z49	X50	Y50	Z50	X51	Y51	Z51	

213	0.88333	-260.34	1288.4	299.51	-377.42	1513.7	483.71	-402.76	1503.3	135.4	-356.46	1840.6	296.75	-288.07	1002.6	441.29	-291.73	1019.8	191.29	-501.34	1039.5	339.5	-493.45	1042.2	259.4	-378.94	922.9	501.01	-398.23	933.22	122.33	-373.74	1095.6	481.77	-394.48	1101.4	147.76	-518.8	999.41	299.41	-376.82	663.72	480.36	-302.73	581.85	443.07	-377.15	573.73	464.6	-292.33	689.85	468.15	-352.85	505.4	450.29	-380.48	503.15	325.46	-441.18	283.97	445.04	-382.01	204.15	396.32	-447.01	215.15	426.57	-378.63	272.77	422.69	-443.43	103.4	401.64	-428.01	117.72	312.47	-514.47	75.444	348.21	-505.96	44.448	317.21	-507.53	42.766	382.82	-336.95	38.659	427.02	-302.88	39.579	305.94	-239.46	57.39	352.51	-323.15	698.51	120.88	-210.59	640.81	119.99	-280.09	620.04	130.7	-258.04	717.38	108.25	-221.79	545.73	134.54	-203.85	532.38	261.29	-375.27	430.9	152.47	-356.82	321.7	145.25	-406.9	360.12	159.2	-325.53	391.68	137.71	-453.97	200.21	169.59	-433.52	206	259.61	-529.12	208.33	222.17	-533.02	184.76	257.34	-541.61	182.13	195.7	-390.62	86.304	145.13	-347.61	81.563	255.44	-298.04	65.075	202.92	-438.12	1561.3	317.54	-519.98	1303.8	300.43
214	0.8875	-255.08	1288.3	299.45	-371.69	1513.7	483.75	-397.55	1503.2	135.47	-350.85	1840.5	296.53	-283.28	1002.4	441.56	-286.42	1019.8	191.52	-496.29	1039.5	339.21	-488.26	1042.1	259.13	-374.52	922.8	500.97	-392.58	933.3	122.2	-369.09	1095.5	481.84	-389.14	1101.4	147.72	-513.67	999.36	299.08	-374.41	663.83	480.32	-300.86	581.33	443.32	-375.37	573.81	464.73	-289.69	689.28	468.29	-351.68	505.23	450.5	-378.95	503.1	325.55	-440.74	284.12	444.96	-381.66	204.11	396.41	-446.74	215.33	426.44	-378.15	272.72	422.81	-443.31	103.53	401.52	-427.84	117.82	312.35	-514.45	75.589	348.08	-505.92	44.5	317.12	-507.47	42.926	382.75	-336.93	38.645	427.02	-302.84	39.508	305.9	-239.39	57.206	352.53	-316.17	698.98	120.63	-203.22	642.03	120.25	-272.63	620.79	130.54	-251.09	718.31	108.34	-213.83	546.65	134.72	-196.07	533.6	261.4	-365.18	428.5	152.07	-344.42	319.69	145.25	-395.34	357.1	158.91	-314.58	390.29	137.63	-438.96	196.08	169.42	-418.85	202.47	259.48	-514.47	202.56	221.81	-517.84	178.92	257	-526.28	176.05	195.39	-372.96	83.605	145.2	-330.03	80.021	255.64	-280.04	64.577	203.24	-432.57	1561.3	317.68	-514.65	1303.8	300.71
215	0.89167	-249.81	1288.1	299.39	-365.96	1513.6	483.79	-392.31	1503.1	135.54	-345.25	1840.4	296.31	-278.47	1002.1	441.81	-281.13	1019.8	191.73	-491.23	1039.4	338.93	-483.08	1042	258.86	-370.07	922.67	500.92	-386.97	933.33	122.08	-364.38	1095.3	481.89	-383.81	1101.4	147.67	-508.55	999.26	298.77	-371.97	663.92	480.27	-298.95	580.82	443.56	-373.57	573.88	464.86	-287.02	688.71	468.4	-350.48	505.05	450.68	-377.43	503.04	325.64	-440.28	284.27	444.87	-381.3	204.08	396.5	-446.45	215.52	426.31	-377.65	272.67	422.92	-443.2	103.67	401.4	-427.69	117.93	312.24	-514.41	75.728	347.95	-505.86	44.557	317.05	-507.42	43.088	382.68	-336.91	38.629	427	-302.81	39.436	305.86	-239.31	57.019	352.55	-309.3	699.38	120.42	-195.98	643.14	120.5	-265.3	621.45	130.4	-244.24	719.15	108.42	-206	547.49	134.91	-188.39	534.74	261.5	-355.11	426.02	151.7	-332.02	317.66	145.24	-383.75	354.01	158.64	-303.66	388.85	137.54	-423.84	191.97	169.22	-404.06	198.9	259.32	-499.68	196.77	221.48	-502.49	173.05	256.67	-510.78	169.97	195.1	-355.23	80.99	145.2	-312.37	78.524	255.75	-262	64.16	203.44	-427.03	1561.3	317.8	-509.33	1303.8	300.98
216	0.89583	-244.53	1287.8	299.31	-360.24	1513.4	483.82	-387.06	1502.9	135.58	-339.64	1840.3	296.09	-273.64	1001.8	442.03	-275.85	1019.7	191.91	-486.17	1039.2	338.65	-477.9	1041.9	258.6	-365.59	922.51	500.86	-381.4	933.29	121.95	-359.62	1095.2	481.94	-378.49	1101.3	147.61	-503.42	999.13	298.48	-369.49	663.99	480.21	-297.03	580.3	443.77	-371.72	573.95	464.97	-284.33	688.12	468.48	-349.26	504.86	450.86	-375.9	502.98	325.72	-439.81	284.42	444.78	-380.93	204.05	396.57	-446.15	215.7	426.18	-377.15	272.62	423.02	-443.08	103.81	401.27	-427.55	118.05	312.14	-514.36	75.861	347.82	-505.78	44.619	316.99	-507.36	43.254	382.6	-336.89	38.612	426.98	-302.78	39.366	305.82	-239.23	56.829	352.57	-302.54	699.71	120.24	-188.88	644.15	120.74	-258.11	622.03	130.29	-237.51	719.9	108.49	-198.3	548.25	135.08	-180.81	535.78	261.6	-345.06	423.47	151.37	-319.62	315.62	145.21	-372.15	350.87	158.39	-292.79	387.38	137.44	-408.64	187.87	169.01	-389.15	195.31	259.14	-484.74	190.97	221.15	-486.97	167.18	256.34	-495.14	163.89	194.8	-337.44	78.467	145.13	-294.64	77.081	255.78	-243.92	63.832	203.53	-421.47	1561.2	317.91	-504	1303.8	301.22
217	0.9	-239.24	1287.5	299.23	-354.51	1513.3	483.83	-381.78	1502.7	135.62	-334.04	1840.1	295.86	-268.79	1001.4	442.22	-270.58	1019.6	192.07	-481.11	1039.1	338.38	-472.72	1041.7	258.34	-361.09	922.31	500.8	-375.87	933.2	121.81	-354.82	1095	481.96	-373.19	1101.1	147.55	-498.3	998.95	298.2	-366.98	664.05	480.16	-295.07	579.77	443.97	-369.84	574	465.08	-281.62	687.53	468.54	-348	504.67	451.02	-374.36	502.92	325.8	-439.32	284.57	444.68	-380.56	204.02	396.64	-445.84	215.89	426.04	-376.64	272.56	423.12	-442.95	103.96	401.14	-427.42	118.17	312.05	-514.29	75.986	347.69	-505.69	44.687	316.93	-507.3	43.423	382.53	-336.87	38.593	426.96	-302.75	39.295	305.79	-239.15	56.637	352.6	-295.89	699.96	120.09	-181.92	645.05	120.97	-251.04	622.52	130.2	-230.87	720.56	108.56	-190.73	548.91	135.26	-173.33	536.74	261.69	-335.02	420.85	151.07	-307.22	313.57	145.16	-360.53	347.69	158.16	-281.95	385.88	137.34	-393.33	183.8	168.77	-374.12	191.72	258.92	-469.65	185.17	220.84	-471.29	161.3	256	-479.34	157.84	194.51	-319.59	76.044	144.99	-276.85	75.702	255.73	-225.81	63.601	203.52	-415.91	1561	318	-498.66	1303.7	301.46
218	0.90417	-233.95	1287.2	299.14	-348.78	1513	483.84	-376.47	1502.4	135.64	-328.44	1839.8	295.63	-263.93	1001.1	442.39	-265.32	1019.4	192.2	-476.03	1038.9	338.12	-467.54	1041.4	258.1	-356.57	922.09	500.74	-370.39	933.05	121.68	-349.96	1094.7	481.98	-367.91	1100.9	147.47	-493.18	998.73	297.93	-364.44	664.1	480.1	-293.08	579.25	444.14	-367.92	574.04	465.18	-278.88	686.93	468.57	-346.72	504.47	451.17	-372.82	502.86	325.87	-438.8	284.72	444.57	-380.18	203.99	396.71	-445.51	216.07	425.9	-376.12	272.51	423.21	-442.83	104.1	401	-427.3	118.3	311.98	-514.19	76.103	347.56	-505.57	44.761	316.89	-507.24	43.593	382.45	-336.84	38.572	426.94	-302.72	39.224	305.75	-239.07	56.444	352.62	-289.36	700.14	119.96	-175.09	645.84	121.2	-244.12	622.92	130.14	-224.35	721.12	108.62	-183.29	549.49	135.43	-165.96	537.61	261.77	-325.01	418.16	150.81	-294.83	311.51	145.08	-348.9	344.47	157.95	-271.16	384.34	137.23	-377.93	179.77	168.51	-358.97	188.12	258.68	-454.42	179.39	220.51	-455.45	155.45	255.64	-463.38	151.81	194.2	-301.68	73.73	144.78	-259	74.396	255.59	-207.67	63.473	203.41	-410.34	1560.8	318.08	-493.32	1303.5	301.67
219	0.90833	-228.65	1286.8	299.04	-343.04	1512.8	483.83	-371.15	1502	135.65	-322.84	1839.6	295.4	-259.04	1000.6	442.54	-260.07	1019.2	192.31	-470.95	1038.7	337.87	-462.37	1041.2	257.86	-352.02	921.84	500.68	-364.94	932.84	121.54	-345.05	1094.4	481.98	-362.64	1100.6	147.38	-488.06	998.48	297.67	-361.85	664.13	480.04	-291.05	578.72	444.3	-365.96	574.07	465.28	-276.11	686.32	468.57	-345.4	504.27	451.31	-371.28	502.79	325.93	-438.27	284.88	444.47	-379.78	203.96	396.77	-445.17	216.26	425.76	-375.59	272.46	423.3	-442.7	104.25	400.86	-427.2	118.44	311.92	-514.08	76.212	347.43	-505.44	44.841	316.85	-507.18	43.765	382.36	-336.82	38.549	426.91	-302.69	39.15	305.72	-238.99	56.25	352.65	-282.93	700.25	119.87	-168.4	646.52	121.42	-237.33	623.23	130.1	-217.95	721.58	108.67	-175.99	549.98	135.59	-158.69	538.39	261.84	-315.01	415.41	150.58	-282.46	309.47	144.99	-337.26	341.21	157.76	-260.41	382.79	137.11	-362.44	175.78	168.22	-343.71	184.54	258.41	-439.04	173.64	220.19	-439.44	149.62	255.27	-447.27	145.83	193.88	-283.72	71.532	144.5	-241.11	73.175	255.39	-189.52	63.459	203.21	-404.77	1560.6	318.15	-487.98	1303.4	301.88
220	0.9125	-223.34	1286.4	298.93	-337.31	1512.4	483.81	-365.8	1501.6	135.65	-317.24	1839.2	295.16	-254.12	1000.2	442.66	-254.82	1018.9	192.39	-465.86	1038.4	337.63	-457.19	1040.8	257.63	-347.45	921.56	500.61	-359.54	932.58	121.4	-340.09	1094	481.96	-357.39	1100.3	147.29	-482.94	998.19	297.43	-359.23	664.14	479.98	-288.99	578.19	444.43	-363.95	574.09	465.37	-273.31	685.71	468.55	-344.04	504.05	451.44	-369.72	502.72	325.99	-437.71	285.04	444.36	-379.38	203.93	396.82	-444.8	216.44	425.61	-375.04	272.41	423.38	-442.57	104.39	400.71	-427.09	118.57	311.86	-513.95	76.313	347.3	-505.3	44.926	316.82	-507.12	43.937	382.28	-336.8	38.523	426.87	-302.66	39.074	305.69	-238.9	56.055	352.69	-276.61	700.29	119.81	-161.86	647.09	121.62	-230.67	623.45	130.09	-211.65	721.93	108.71	-168.82	550.38	135.75	-151.52	539.08	261.91	-305.04	412.61	150.39	-270.1	307.43	144.87	-325.61	337.93	157.58	-249.72	381.21	136.98	-346.86	171.85	167.9	-328.33	180.98	258.11	-423.51	167.92	219.85	-423.27	143.84	254.88	-431.01	139.9	193.54	-265.7	69.458	144.17	-223.17	72.05	255.12	-171.35	63.568	202.94	-399.18	1560.3	318.2	-482.63	1303.1	302.06
